<svg width="14" height="15" viewBox="0 0 14 15" fill="none" xmlns="http://www.w3.org/2000/svg">
<path d="M10 1.72119H4.00002C2.34316 1.72119 1.00002 3.06434 1.00002 4.72119V10.7212C1.00002 12.378 2.34316 13.7212 4.00002 13.7212H10C11.6569 13.7212 13 12.378 13 10.7212V4.72119C13 3.06434 11.6569 1.72119 10 1.72119Z" stroke="white" stroke-width="1.5"/>
<path d="M9.40005 7.34337C9.4741 7.84272 9.3888 8.3527 9.15631 8.80078C8.92381 9.24886 8.55594 9.61222 8.10503 9.83918C7.65411 10.0661 7.14312 10.1451 6.64472 10.0649C6.14633 9.98473 5.68591 9.74942 5.32895 9.39247C4.972 9.03552 4.73669 8.5751 4.65649 8.0767C4.57629 7.5783 4.65529 7.06731 4.88225 6.6164C5.1092 6.16548 5.47256 5.79762 5.92064 5.56512C6.36872 5.33262 6.8787 5.24733 7.37805 5.32137C7.8874 5.3969 8.35896 5.63425 8.72307 5.99836C9.08717 6.36246 9.32452 6.83402 9.40005 7.34337Z" stroke="white" stroke-width="1.5" stroke-linecap="round" stroke-linejoin="round"/>
</svg>
