<svg width="206" height="14" viewBox="0 0 206 14" fill="none" xmlns="http://www.w3.org/2000/svg">
<path fill-rule="evenodd" clip-rule="evenodd" d="M199.045 -5.34058e-05L205.683 6.63799L199.045 13.276L198.098 12.3285L203.788 6.63799L198.098 0.947513L199.045 -5.34058e-05Z" fill="white"/>
<path fill-rule="evenodd" clip-rule="evenodd" d="M204.736 7.30789L164.228 7.30788L164.228 5.96782L204.736 5.96783L204.736 7.30789Z" fill="white"/>
<path fill-rule="evenodd" clip-rule="evenodd" d="M6.63805 13.2762L7.82124e-06 6.63812L6.63805 8.23353e-05L7.58562 0.94765L1.89514 6.63812L7.58562 12.3286L6.63805 13.2762Z" fill="white"/>
<path fill-rule="evenodd" clip-rule="evenodd" d="M0.947549 5.96822L41.4555 5.96823L41.4555 7.30829L0.947549 7.30828L0.947549 5.96822Z" fill="white"/>
<rect x="125.164" y="1.45647" width="9.56667" height="9.56667" rx="4.78333" fill="white" fill-opacity="0.3"/>
<rect x="98.0583" y="1.45647" width="9.56667" height="9.56667" rx="4.78333" fill="white" fill-opacity="0.3"/>
<rect x="70.9528" y="1.45633" width="9.56667" height="9.56667" rx="4.78333" fill="white"/>
</svg>
